<?xml version="1.0" encoding="UTF-8" standalone="no"?>
<!-- Copyright 2017 mathsisfun.com -->

<svg
   width="195.73503"
   height="135.77359"
   version="1.1"
   style="font-size:36.6px;font-family:'Comic Sans MS';fill:#729fcf;stroke-width:3.2"
   id="svg49"
   sodipodi:docname="expression-term.svg"
   inkscape:version="1.2.2 (b0a8486541, 2022-12-01)"
   xmlns:inkscape="http://www.inkscape.org/namespaces/inkscape"
   xmlns:sodipodi="http://sodipodi.sourceforge.net/DTD/sodipodi-0.dtd"
   xmlns="http://www.w3.org/2000/svg"
   xmlns:svg="http://www.w3.org/2000/svg">
  <sodipodi:namedview
     id="namedview51"
     pagecolor="#ffffff"
     bordercolor="#000000"
     borderopacity="0.25"
     inkscape:showpageshadow="2"
     inkscape:pageopacity="0.0"
     inkscape:pagecheckerboard="0"
     inkscape:deskcolor="#d1d1d1"
     showgrid="false"
     inkscape:zoom="2.9724198"
     inkscape:cx="67.45346"
     inkscape:cy="55.342116"
     inkscape:window-width="1422"
     inkscape:window-height="719"
     inkscape:window-x="0"
     inkscape:window-y="0"
     inkscape:window-maximized="1"
     inkscape:current-layer="svg49" />
  <defs
     id="defs11">
    <marker
       id="aa3"
       style="overflow:visible"
       orient="auto">
      <path
         transform="scale(-0.6)"
         style="stroke:#729fcf;stroke-width:0.63;stroke-linejoin:round"
         d="M 8.7,4 -2.2,0 8.7,-4 C 7,-1.6 7,1.6 8.7,4 Z"
         id="path2" />
    </marker>
    <marker
       id="aa1"
       style="overflow:visible"
       orient="auto">
      <path
         transform="scale(-0.6)"
         style="stroke:#729fcf;stroke-width:0.63;stroke-linejoin:round"
         d="M 8.7,4 -2.2,0 8.7,-4 C 7,-1.6 7,1.6 8.7,4 Z"
         id="path5" />
    </marker>
    <marker
       id="aa2"
       style="overflow:visible"
       orient="auto">
      <path
         transform="scale(-0.6)"
         style="stroke:#729fcf;stroke-width:0.63;stroke-linejoin:round"
         d="M 8.7,4 -2.2,0 8.7,-4 C 7,-1.6 7,1.6 8.7,4 Z"
         id="path8" />
    </marker>
  </defs>
  <text
     x="4.7350368"
     y="70.11245"
     style="color:#000000;font-style:normal;font-variant:normal;font-weight:normal;font-stretch:normal;font-size:36px;font-family:'Trebuchet MS';-inkscape-font-specification:'Trebuchet MS';overflow:visible;fill:#c4a000;stroke-dasharray:12.8, 12.8"
     id="text13">4</text>
  <text
     x="29.035036"
     y="70.11245"
     style="color:#000000;font-style:normal;font-variant:normal;font-weight:normal;font-stretch:normal;font-size:36px;font-family:'Trebuchet MS';-inkscape-font-specification:'Trebuchet MS';overflow:visible;fill:#c4a000;stroke-dasharray:12.8, 12.8"
     id="text15">x</text>
  <text
     x="92.435036"
     y="71.412453"
     style="color:#000000;font-style:normal;font-variant:normal;font-weight:normal;font-stretch:normal;font-size:36px;font-family:'Trebuchet MS';-inkscape-font-specification:'Trebuchet MS';overflow:visible;fill:#c4a000;stroke-dasharray:12.8, 12.8"
     id="text17">7</text>
  <text
     x="131.93504"
     y="70.11245"
     style="color:#000000;font-style:normal;font-variant:normal;font-weight:normal;font-stretch:normal;font-size:36px;font-family:'Trebuchet MS';-inkscape-font-specification:'Trebuchet MS';overflow:visible;fill:#62a0ea;stroke-dasharray:12.8, 12.8"
     id="text19">=</text>
  <text
     x="169.33504"
     y="70.11245"
     style="color:#000000;font-style:normal;font-variant:normal;font-weight:normal;font-stretch:normal;font-size:36px;font-family:'Trebuchet MS';-inkscape-font-specification:'Trebuchet MS';overflow:visible;fill:#0000fe;stroke-dasharray:12.8, 12.8"
     id="text21">5</text>
  <text
     x="16.435038"
     y="12.012451"
     style="color:#000000;font-style:italic;font-variant:normal;font-weight:normal;font-stretch:normal;font-size:16.5px;font-family:'Trebuchet MS';-inkscape-font-specification:'Trebuchet MS Italic';overflow:visible;fill:#c4a000;stroke-dasharray:12.8, 12.8"
     id="text23">Expression</text>
  <text
     x="65.735039"
     y="135.61246"
     style="color:#000000;font-style:italic;font-variant:normal;font-weight:normal;font-stretch:normal;font-size:16.5px;font-family:'Trebuchet MS';-inkscape-font-specification:'Trebuchet MS Italic';overflow:visible;stroke-dasharray:12.8, 12.8"
     id="text25">Terms</text>
  <path
     style="color:#000000;overflow:visible;stroke:#729fcf;stroke-width:1.67;marker-end:url(#aa1)"
     d="m 63.635037,118.01245 -28.6,-29.499998"
     id="path27" />
  <path
     style="stroke:#729fcf;stroke-width:2.13"
     d="M 2.571715,78.212452 H 55.035037"
     id="path29" />
  <path
     style="stroke:#729fcf;stroke-width:2.13"
     d="M 85.835037,78.212452 H 116.43504"
     id="path31" />
  <path
     style="stroke:#729fcf;stroke-width:2.13"
     d="m 163.13504,78.212452 h 32.6"
     id="path33" />
  <path
     style="color:#000000;overflow:visible;stroke:#729fcf;stroke-width:1.67;marker-end:url(#aa2)"
     d="M 92.235037,116.51245 100.43504,89.812452"
     id="path35" />
  <path
     style="color:#000000;overflow:visible;stroke:#729fcf;stroke-width:1.67;marker-end:url(#aa3)"
     d="m 125.13504,118.61245 44.2,-31.099998"
     id="path37" />
  <g
     transform="matrix(0.492806,0,0,0.458038,40.804337,-382.64055)"
     id="g43">
    <path
       style="fill:#c4a000"
       d="m -82.7,908.5 c 0.9,-1.1 1.8,-2.2 2.7,-3.3 1.2,-1.5 2.8,-2.6 4.2,-4 1.5,-1.4 3.4,-2.3 5.1,-3.4 1.6,-1 3.4,-1.6 5.1,-2.3 4.2,-2.7 9.1,-2.2 13.7,-3.3 1.9,-0.3 3.7,-0.2 5.6,-0.4 1.7,-0.2 3.5,0 5.2,0.1 1.8,0.2 3.5,0.5 5.3,0.8 1.8,0.2 3.6,0.5 5.4,0.7 1.6,0.2 3.2,0.3 4.8,0.5 1.8,0.1 3.7,0.2 5.5,0.3 2,0 3.9,0.3 5.8,0.4 1.9,0.3 3.8,0.2 5.7,0.3 2.2,0 4.3,-0.3 6.5,-0.4 2.1,-0.1 4.2,-0.3 6.3,-0.5 1.8,0 3.6,-0.7 5.3,-1 1.1,-0.3 -2.3,0.6 -3.4,0.9 1.4,-0.3 2.8,-0.9 4.2,-1.3 1.4,-0.4 2.7,-1.1 4.1,-1.7 1.2,-0.6 2.4,-1.2 3.5,-1.8 0.9,-0.5 1.9,-0.9 2.8,-1.4 1.1,-0.5 2.1,-1.2 3.1,-1.8 1,-0.6 1.9,-1.3 2.8,-2 0.8,-0.5 1.4,-1.1 2.1,-1.7 0.8,-0.7 1.4,-1.5 2,-2.3 0.5,-0.7 1,-1.4 1.6,-2.1 0.3,-0.4 0.7,-0.8 1,-1.3 0.2,-0.3 0.4,-0.5 0.6,-0.8 0,0 0.1,-0.1 0.1,-0.2 l 10.7,1.5 c 0,0 -0.1,0.1 -0.1,0.2 -0.2,0.3 -0.4,0.5 -0.6,0.8 -0.3,0.4 -0.7,0.8 -1,1.2 -0.5,0.6 -1.1,1.2 -1.5,1.9 -0.7,0.9 -1.4,1.9 -2.1,2.8 -0.8,0.8 -1.4,1.7 -2.3,2.4 -1,0.7 -1.9,1.5 -2.9,2.2 -1.1,0.7 -2.1,1.6 -3.2,2.2 -0.9,0.5 -1.8,1.2 -2.8,1.5 -1.2,0.6 -2.4,1.3 -3.6,1.9 -1.4,0.7 -2.7,1.5 -4.2,2 -1.5,0.6 -2.9,1.2 -4.4,1.7 -4.4,1.2 -8.8,2.5 -13.3,3.4 -1.9,0.2 -3.8,0.6 -5.8,0.7 -2.1,0.2 -4.2,0.3 -6.3,0.5 -2.3,0 -4.6,0.3 -6.8,0 -2,-0.2 -4,-0.3 -5.9,-0.5 -1.9,-0.1 -3.8,-0.2 -5.7,-0.3 -1.9,-0.1 -3.8,-0.2 -5.6,-0.4 -1.7,-0.2 -3.3,-0.4 -5,-0.6 -1.8,-0.2 -3.6,-0.5 -5.4,-0.7 -1.7,-0.2 -3.4,-0.5 -5,-0.5 -1.6,0 -3.2,0 -4.8,0.2 -1.8,0.2 -3.5,0.2 -5.3,0.6 1.1,-0.4 2.2,-0.8 3.3,-1.1 -1.6,0.6 -3.3,0.9 -4.9,1.7 -1.6,0.9 -3.4,1.5 -4.9,2.7 -1.3,1 -2.9,1.9 -4,3.2 -0.9,1 -1.9,1.9 -2.7,3 l -10.7,-1.5 z"
       id="path39" />
    <path
       style="fill:#c4a000"
       d="m 160.4,909.7 c -0.9,-1.1 -1.8,-2.2 -2.7,-3.3 -1.2,-1.5 -2.8,-2.6 -4.2,-4 -1.5,-1.4 -3.4,-2.3 -5.1,-3.4 -1.6,-1 -3.4,-1.6 -5.1,-2.3 -4.2,-2.7 -9.1,-2.2 -13.7,-3.3 -1.9,-0.3 -3.7,-0.2 -5.6,-0.4 -1.7,-0.2 -3.5,0 -5.2,0.1 -1.8,0.2 -3.5,0.5 -5.3,0.8 -1.8,0.2 -3.6,0.5 -5.4,0.7 -1.6,0.2 -3.2,0.3 -4.8,0.5 -1.8,0.1 -3.7,0.2 -5.5,0.3 -2,0 -3.9,0.3 -5.8,0.4 -1.9,0.3 -3.8,0.2 -5.7,0.3 -2.2,0 -4.3,-0.3 -6.5,-0.4 -2.1,-0.1 -4.2,-0.3 -6.3,-0.5 -1.8,0 -3.6,-0.7 -5.3,-1 -1.1,-0.3 2.3,0.6 3.4,0.9 -1.4,-0.3 -2.8,-0.9 -4.2,-1.3 -1.4,-0.4 -2.7,-1.1 -4.1,-1.7 -1.2,-0.6 -2.4,-1.2 -3.5,-1.8 -0.9,-0.5 -1.9,-0.9 -2.8,-1.4 -1.1,-0.5 -2.1,-1.2 -3.1,-1.8 -1,-0.6 -1.9,-1.3 -2.8,-2 -0.8,-0.5 -1.4,-1.1 -2.1,-1.7 -0.8,-0.7 -1.4,-1.5 -2,-2.3 -0.5,-0.7 -1,-1.4 -1.6,-2.1 -0.3,-0.4 -0.7,-0.8 -1,-1.3 -0.2,-0.3 -0.4,-0.5 -0.6,-0.8 0,0 -0.1,-0.1 -0.1,-0.2 L 33,878.2 c 0,0 0.1,0.1 0.1,0.2 0.2,0.3 0.4,0.5 0.6,0.8 0.3,0.4 0.7,0.8 1,1.2 0.5,0.6 1.1,1.2 1.5,1.9 0.7,0.9 1.4,1.9 2.1,2.8 0.8,0.8 1.4,1.7 2.3,2.4 1,0.7 1.9,1.5 2.9,2.2 1.1,0.7 2.1,1.6 3.2,2.2 0.9,0.5 1.8,1.2 2.8,1.5 1.2,0.6 2.4,1.3 3.6,1.9 1.4,0.7 2.7,1.5 4.2,2 1.5,0.6 2.9,1.2 4.4,1.7 4.4,1.2 8.8,2.5 13.3,3.4 1.9,0.2 3.8,0.6 5.8,0.7 2.1,0.2 4.2,0.3 6.3,0.5 2.3,0 4.6,0.3 6.8,0 2,-0.2 4,-0.3 5.9,-0.5 1.9,-0.1 3.8,-0.2 5.7,-0.3 1.9,-0.1 3.8,-0.2 5.6,-0.4 1.7,-0.2 3.3,-0.4 5,-0.6 1.8,-0.2 3.6,-0.5 5.4,-0.7 1.7,-0.2 3.4,-0.5 5,-0.5 1.6,0 3.2,0 4.8,0.2 1.8,0.2 3.5,0.2 5.3,0.6 -1.1,-0.4 -2.2,-0.8 -3.3,-1.1 1.6,0.6 3.3,0.9 4.9,1.7 1.6,0.9 3.4,1.5 4.9,2.7 1.3,1 2.9,1.9 4,3.2 0.9,1 1.9,1.9 2.7,3 l 10.7,-1.5 z"
       id="path41" />
  </g>
  <text
     x="60.035034"
     y="69.11245"
     style="color:#000000;font-style:normal;font-variant:normal;font-weight:normal;font-stretch:normal;font-size:36px;font-family:'Trebuchet MS';-inkscape-font-specification:'Trebuchet MS';overflow:visible;fill:#c4a000"
     id="text45">−</text>
  <text
     x="27.935038"
     y="70.11245"
     style="color:#000000;font-style:normal;font-variant:normal;font-weight:normal;font-stretch:normal;font-size:36px;font-family:'Trebuchet MS';-inkscape-font-specification:'Trebuchet MS';overflow:visible;fill:#c4a000"
     id="text47">x</text>
</svg>
